<svg width="495" height="384" viewBox="0 0 495 384" fill="none" xmlns="http://www.w3.org/2000/svg">
<path d="M102.734 116.672L102.688 128.766V128.906V129.281H0.40625C2.40625 129.281 4.0625 128.906 5.375 128.156C6.71875 127.375 7.78125 126.391 8.5625 125.203C9.34375 124.016 9.92188 122.797 10.2969 121.547C10.7031 120.297 10.9531 119.172 11.0469 118.172C11.1719 117.141 11.2344 116.391 11.2344 115.922V13.8281V13.5C11.2344 12.9375 11.1406 11.9844 10.9531 10.6406C10.8281 9.60938 10.5469 8.5 10.1094 7.3125C9.70312 6.09375 9.09375 4.95312 8.28125 3.89062C7.5 2.79687 6.46875 1.89063 5.1875 1.17188C3.90625 0.453125 2.3125 0.09375 0.40625 0.09375H102.688L102.734 12.75C102.734 10.5938 102.297 8.84375 101.422 7.5C100.578 6.15625 99.5156 5.09375 98.2344 4.3125C96.9844 3.53125 95.7031 2.96875 94.3906 2.625C93.0781 2.28125 91.9375 2.0625 90.9688 1.96875H34.3906C32.9531 3.125 31.8906 4.5 31.2031 6.09375C30.5469 7.65625 30.1094 9.14062 29.8906 10.5469C29.7031 11.9219 29.6094 12.9063 29.6094 13.5V61.3594H79.1562C80.125 61.2656 81.2656 61.0469 82.5781 60.7031C83.8906 60.3594 85.1719 59.7969 86.4219 59.0156C87.7031 58.2344 88.7656 57.1719 89.6094 55.8281C90.4531 54.4844 90.875 52.7344 90.875 50.5781V73.9688C90.875 71.8438 90.4531 70.1094 89.6094 68.7656C88.7656 67.3906 87.7031 66.3281 86.4219 65.5781C85.1719 64.7969 83.8906 64.2344 82.5781 63.8906C81.2656 63.5156 80.125 63.2969 79.1562 63.2344H29.6094V115.594C29.6094 115.594 29.6094 115.766 29.6094 116.109C29.6406 116.453 29.6719 116.875 29.7031 117.375C29.7656 117.875 29.8281 118.344 29.8906 118.781C30.0781 120.156 30.5156 121.656 31.2031 123.281C31.8906 124.875 32.9531 126.25 34.3906 127.406H90.9688C91.9375 127.344 93.0781 127.141 94.3906 126.797C95.7031 126.422 96.9844 125.859 98.2344 125.109C99.5156 124.328 100.578 123.266 101.422 121.922C102.297 120.547 102.734 118.797 102.734 116.672ZM231.406 47.3906H262.016C258.641 47.3906 255.578 48.0469 252.828 49.3594C250.078 50.6719 247.672 52.3594 245.609 54.4219C243.578 56.4844 241.953 58.6719 240.734 60.9844L204.828 129.375L202.766 129.234L178.109 82.3125L153.406 129.375L151.391 129.234L115.203 60.3281C115.047 59.8906 114.188 58.6562 112.625 56.625C111.062 54.5625 108.75 52.5469 105.688 50.5781C102.656 48.6094 98.8438 47.5469 94.25 47.3906H143.516C141.016 47.3906 139.125 47.9219 137.844 48.9844C136.594 50.0156 135.766 51.2656 135.359 52.7344C134.984 54.2031 134.891 55.6562 135.078 57.0938C135.266 58.5 135.578 59.625 136.016 60.4688C136.016 60.4688 136.016 60.4844 136.016 60.5156L136.062 60.5625L161.75 109.453L177.078 80.2969L166.578 60.3281C166.453 59.8906 165.609 58.6562 164.047 56.625C162.484 54.5625 160.172 52.5469 157.109 50.5781C154.078 48.6094 150.266 47.5469 145.672 47.3906H194.938C194.594 47.3906 194.25 47.4062 193.906 47.4375C192.125 47.5938 190.703 48.0312 189.641 48.75C188.578 49.4688 187.797 50.3594 187.297 51.4219C186.578 53.0469 186.281 54.7188 186.406 56.4375C186.562 58.125 186.906 59.4688 187.438 60.4688L213.172 109.453L238.953 60.375C239.297 59.4375 239.516 58.2656 239.609 56.8594C239.734 55.4219 239.578 53.9844 239.141 52.5469C238.734 51.1094 237.922 49.8906 236.703 48.8906C235.516 47.8906 233.75 47.3906 231.406 47.3906ZM372.172 129C374.203 129 375.875 128.609 377.188 127.828C378.531 127.047 379.594 126.078 380.375 124.922C381.156 123.734 381.734 122.516 382.109 121.266C382.484 119.984 382.734 118.844 382.859 117.844C382.984 116.812 383.047 116.078 383.047 115.641V66.4219C383.047 65.5156 382.922 64.0625 382.672 62.0625C382.422 60.0312 381.859 57.9844 380.984 55.9219C380.141 53.8594 378.812 52.3125 377 51.2812C375.219 50.2188 372.797 50.2031 369.734 51.2344C369.078 51.4844 368.438 51.7812 367.812 52.125C362.125 55.0312 357.062 59.7656 352.625 66.3281C350.469 69.6094 348.531 73.0312 346.812 76.5938C346.812 76.5938 346.812 78.625 346.812 82.6875C346.844 86.7188 346.859 91.3438 346.859 96.5625C346.859 101.781 346.859 106.406 346.859 110.438C346.891 114.438 346.906 116.625 346.906 117C346.969 117.938 347.172 119.078 347.516 120.422C347.859 121.734 348.406 123.047 349.156 124.359C349.938 125.672 351 126.766 352.344 127.641C353.719 128.516 355.5 128.953 357.688 128.953C357.688 128.953 357.672 128.969 357.641 129C357.641 129 357.625 129 357.594 129C357.625 129 357.656 129 357.688 129H317.609C317.641 129 317.656 129 317.656 129C317.688 129 317.703 129 317.703 129C317.703 129 317.688 129 317.656 129C317.656 129 317.641 129 317.609 129C317.609 128.969 317.609 128.953 317.609 128.953C319.828 128.953 321.625 128.5 323 127.594C324.375 126.688 325.438 125.578 326.188 124.266C326.969 122.922 327.516 121.578 327.828 120.234C328.141 118.859 328.328 117.719 328.391 116.812C328.391 116.625 328.391 115.25 328.391 112.688C328.422 110.094 328.438 106.812 328.438 102.844C326.5 105.25 324.625 107.438 322.812 109.406C319.969 112.969 317.188 115.891 314.469 118.172C312.344 120.203 310.047 121.953 307.578 123.422C307.547 123.453 307.5 123.484 307.438 123.516H307.484C302.234 126.641 296.578 128.562 290.516 129.281C284.484 130 278.531 129.406 272.656 127.5C266.812 125.594 261.547 122.297 256.859 117.609C251.516 112.328 247.969 106.156 246.219 99.0938C244.438 92.0312 244.438 84.9688 246.219 77.9062C247.969 70.8438 251.516 64.6875 256.859 59.4375C261.859 54.4375 267.703 50.9688 274.391 49.0312C281.078 47.0938 287.859 46.8594 294.734 48.3281C294.891 48.3281 295.859 48.5625 297.641 49.0312C299.422 49.5 301.484 50.2344 303.828 51.2344C306.172 52.2031 308.25 53.4375 310.062 54.9375C311.875 56.4375 312.906 58.2188 313.156 60.2812C313.156 60.2812 313.188 60.6094 313.25 61.2656C313.25 61.9219 313.094 62.8438 312.781 64.0312C312.5 65.2188 311.875 66.5781 310.906 68.1094C309.969 69.6094 308.516 71.2031 306.547 72.8906C305.234 73.9531 303.594 75.2188 301.625 76.6875C299.688 78.125 297.828 79.3281 296.047 80.2969C291.703 83.0156 286.453 85.8281 280.297 88.7344C274.172 91.6406 269.375 93.75 265.906 95.0625C268.219 99.6562 271.094 103.875 274.531 107.719C277.969 111.562 281.844 114.672 286.156 117.047C290.469 119.391 295.078 120.562 299.984 120.562C302.359 120.562 304.531 120.219 306.5 119.531C308.469 118.844 310.234 117.953 311.797 116.859C312.328 116.484 312.859 116.078 313.391 115.641C313.422 115.641 313.438 115.641 313.438 115.641C316.688 113.047 319.875 109.953 323 106.359C324.875 104.234 326.688 102.062 328.438 99.8438C328.438 95.1875 328.438 90.5625 328.438 85.9688C328.438 81.3438 328.438 77.4531 328.438 74.2969C328.438 71.1406 328.438 69.5625 328.438 69.5625C328.438 67.8125 328.297 66.3906 328.016 65.2969C327.734 64.1719 327.375 63.2969 326.938 62.6719C326.5 62.0156 326.031 61.5469 325.531 61.2656C325.031 60.9844 324.547 60.8281 324.078 60.7969C323.641 60.7344 323.266 60.7344 322.953 60.7969C322.672 60.8594 322.516 60.8906 322.484 60.8906L346.812 47.0625V72.4219C348.125 69.9844 349.547 67.6094 351.078 65.2969C355.703 58.4531 361 53.5 366.969 50.4375C372.281 47.8125 377.641 46.7812 383.047 47.3438C385.016 47.5625 386.891 48.0156 388.672 48.7031C392.297 50.1094 395.25 52.2812 397.531 55.2188C399.812 58.125 401.109 61.3281 401.422 64.8281V115.641C401.422 116.078 401.469 116.812 401.562 117.844C401.688 118.844 401.938 119.984 402.312 121.266C402.719 122.516 403.312 123.734 404.094 124.922C404.875 126.078 405.922 127.047 407.234 127.828C408.578 128.609 410.25 129 412.25 129H372.172ZM260.938 70.6406C260.281 78.1406 261.672 85.7188 265.109 93.375C267.641 92.375 271.094 90.9062 275.469 88.9688C282.25 85.7188 287.359 82.5 290.797 79.3125C294.266 76.0938 296.5 73.0469 297.5 70.1719C298.531 67.2656 298.766 64.625 298.203 62.25C297.672 59.875 296.766 57.875 295.484 56.25C293.734 53.9375 291.562 52.25 288.969 51.1875C286.375 50.0938 283.641 49.5625 280.766 49.5938C275.297 50.125 270.812 52.0312 267.312 55.3125C263.812 58.5938 261.688 63.7031 260.938 70.6406ZM154.625 370.203C164.938 372.672 173.094 374.109 179.094 374.516C185.094 374.922 189.406 374.875 192.031 374.375C194.688 373.906 196.109 373.562 196.297 373.344C190.141 377.156 183.484 379.766 176.328 381.172C169.172 382.609 161.859 383.047 154.391 382.484C146.922 381.953 139.609 380.609 132.453 378.453C124.328 375.984 116.453 372.922 108.828 369.266C101.234 365.641 93.7031 361.828 86.2344 357.828C80.1406 354.578 74.0156 351.438 67.8594 348.406C57.3281 343.375 46.125 339.188 34.25 335.844C22.375 332.5 11.0938 330.297 0.40625 329.234C3.125 329.172 5.23438 328.484 6.73438 327.172C8.26562 325.828 9.34375 324.281 9.96875 322.531C10.5938 320.781 10.9688 319.219 11.0938 317.844C11.0938 317.844 11.1094 317.828 11.1406 317.797C11.2031 316.922 11.2344 316.281 11.2344 315.875V315.688V213.359C11.2656 212.547 11.2031 211.609 11.0469 210.547C11.0156 210.422 11 210.297 11 210.172C10.5938 207.453 9.57812 205.062 7.95312 203C6.35938 200.906 3.84375 199.797 0.40625 199.672H40.4844C38.1406 199.672 36.25 200.188 34.8125 201.219C33.4062 202.25 32.3281 203.484 31.5781 204.922C30.7656 206.609 30.2344 208.234 29.9844 209.797C29.7344 211.328 29.625 212.406 29.6562 213.031V315.547V332.188C30.3438 332.188 31.0469 332.188 31.7656 332.188C37.8281 332.125 43.8906 332.188 49.9531 332.375C56.0469 332.594 62.125 333.172 68.1875 334.109C74.4688 334.953 80.6562 336.594 86.75 339.031C92.875 341.469 98.75 344.328 104.375 347.609C106.969 348.953 109.547 350.297 112.109 351.641C118.953 355.328 125.875 358.828 132.875 362.141C139.906 365.453 147.156 368.141 154.625 370.203ZM102.031 315.969C102.031 316.406 102.078 317.141 102.172 318.172C102.297 319.172 102.547 320.312 102.922 321.594C103.328 322.844 103.922 324.062 104.703 325.25C105.484 326.406 106.531 327.375 107.844 328.156C109.188 328.938 110.875 329.328 112.906 329.328H102.031L95.9375 329.281C93.2812 329.281 90.9062 328.531 88.8125 327.031C86.75 325.531 85.2812 323.594 84.4062 321.219C84.3125 321.25 84.2188 321.297 84.125 321.359C83.9688 321.453 83.8125 321.547 83.6562 321.641C81.375 322.922 79.0469 324.125 76.6719 325.25C74.4531 326.312 72.1719 327.203 69.8281 327.922C68.4844 328.328 67 328.688 65.375 329C63.75 329.281 62.0469 329.422 60.2656 329.422C58.7031 329.422 57.1094 329.281 55.4844 329C53.8594 328.688 52.2344 328.172 50.6094 327.453C47.4531 326.047 44.7969 323.938 42.6406 321.125C40.4219 318.156 39.1719 314.938 38.8906 311.469C38.5781 304.875 41.2031 298.938 46.7656 293.656C49.2031 291.5 51.8125 289.703 54.5938 288.266C57.375 286.828 60.1875 285.516 63.0312 284.328L74.4688 279.406L83.6562 275.375V268.531C83.6562 266.75 83.4688 264.719 83.0938 262.438C82.7188 260.125 82.0312 257.922 81.0312 255.828C80.0312 253.734 78.5938 252.062 76.7188 250.812C74.8438 249.562 72.4375 249.047 69.5 249.266C68.9375 249.328 68.3906 249.422 67.8594 249.547C67.6719 249.578 67.4844 249.625 67.2969 249.688C65.4531 250.375 64.1094 251.672 63.2656 253.578C62.4219 255.453 61.9062 257.438 61.7188 259.531C61.5312 261.625 61.4688 263.312 61.5312 264.594C61.5938 264.938 61.625 265.281 61.625 265.625C61.625 265.656 61.625 265.703 61.625 265.766C61.625 265.797 61.625 265.844 61.625 265.906C61.625 265.969 61.625 266 61.625 266C61.4688 268 60.6875 269.672 59.2812 271.016C57.875 272.359 56.1719 273.031 54.1719 273.031C52.1406 273.031 50.3906 272.312 48.9219 270.875C47.4844 269.406 46.7656 267.656 46.7656 265.625C46.7656 264.656 46.9219 263.75 47.2344 262.906C47.3594 262.625 47.4844 262.359 47.6094 262.109C47.6719 261.984 47.7344 261.891 47.7969 261.828C50.2031 257.391 53.6719 253.828 58.2031 251.141C62.7344 248.453 67.8125 247.109 73.4375 247.109C77.0312 247.109 80.4375 247.688 83.6562 248.844C89.125 250.812 93.5469 254 96.9219 258.406C100.328 262.781 102.031 267.766 102.031 273.359V315.922C102.031 315.922 102.031 315.938 102.031 315.969ZM76.3438 323.328C77.2188 322.922 78.2344 322.406 79.3906 321.781C80.5469 321.156 81.5625 320.609 82.4375 320.141C83.3125 319.641 83.7969 319.375 83.8906 319.344C83.7344 318.594 83.6562 317.812 83.6562 317V277.438L72.6875 282.172C70.5 283.422 68.3594 285.141 66.2656 287.328C64.1719 289.516 62.4844 292.312 61.2031 295.719C59.9219 299.094 59.4062 303.203 59.6562 308.047C60 312.172 60.8906 315.344 62.3281 317.562C63.7656 319.781 65.4219 321.312 67.2969 322.156C69.1719 323 70.9375 323.453 72.5938 323.516C74.2812 323.578 75.5312 323.516 76.3438 323.328ZM183.781 249.781C185.031 251.188 185.656 252.828 185.656 254.703C185.656 256.766 184.922 258.531 183.453 260C182.016 261.438 180.266 262.156 178.203 262.156C176.266 262.156 174.578 261.5 173.141 260.188C173.141 260.188 172.828 259.922 172.203 259.391C171.578 258.891 170.719 258.344 169.625 257.75C168.531 257.125 167.312 256.641 165.969 256.297C164.594 255.953 163.156 255.922 161.656 256.203C160.188 256.484 158.734 257.25 157.297 258.5C154.984 260.75 152.812 263.391 150.781 266.422C148.594 269.703 146.656 273.125 144.969 276.688V315.688C144.969 316 144.984 316.469 145.016 317.094C145.109 318.062 145.312 319.203 145.625 320.516C145.969 321.859 146.516 323.172 147.266 324.453C148.047 325.766 149.125 326.859 150.5 327.734C151.844 328.641 153.609 329.094 155.797 329.094H115.719C115.719 329.094 115.922 329.062 116.328 329C116.766 328.938 117.281 328.859 117.875 328.766C118.5 328.641 119.094 328.5 119.656 328.344C120.25 328.156 120.734 327.938 121.109 327.688C122.484 326.781 123.562 325.656 124.344 324.312C125.094 323 125.625 321.672 125.938 320.328C126.25 318.984 126.438 317.844 126.5 316.906C126.5 316.531 126.516 314 126.547 309.312C126.547 304.625 126.547 299.219 126.547 293.094C126.547 290.469 126.547 287.969 126.547 285.594C126.547 282.438 126.547 279.5 126.547 276.781C126.547 272.031 126.547 269.656 126.547 269.656C126.547 267.938 126.406 266.516 126.125 265.391C125.844 264.266 125.484 263.375 125.047 262.719C124.609 262.094 124.141 261.641 123.641 261.359C123.141 261.109 122.672 260.953 122.234 260.891C121.797 260.828 121.422 260.828 121.109 260.891C120.828 260.953 120.656 260.984 120.594 260.984L144.969 247.156V272.562C146.25 270.094 147.656 267.703 149.188 265.391C153.812 258.547 159.109 253.594 165.078 250.531C169.297 248.438 173.594 247.359 177.969 247.297C178.062 247.297 178.141 247.297 178.203 247.297H178.25C180.531 247.391 182.375 248.219 183.781 249.781ZM252.969 249.781C254.219 251.188 254.844 252.828 254.844 254.703C254.844 256.766 254.109 258.531 252.641 260C251.203 261.438 249.453 262.156 247.391 262.156C245.453 262.156 243.766 261.5 242.328 260.188C242.328 260.188 242.016 259.922 241.391 259.391C240.766 258.891 239.906 258.344 238.812 257.75C237.719 257.125 236.5 256.641 235.156 256.297C233.781 255.953 232.344 255.922 230.844 256.203C229.375 256.484 227.922 257.25 226.484 258.5C224.172 260.75 222 263.391 219.969 266.422C217.781 269.703 215.844 273.125 214.156 276.688V315.688C214.156 316 214.172 316.469 214.203 317.094C214.297 318.062 214.5 319.203 214.812 320.516C215.156 321.859 215.703 323.172 216.453 324.453C217.234 325.766 218.312 326.859 219.688 327.734C221.031 328.641 222.797 329.094 224.984 329.094H184.906C184.906 329.094 185.109 329.062 185.516 329C185.953 328.938 186.469 328.859 187.062 328.766C187.688 328.641 188.281 328.5 188.844 328.344C189.438 328.156 189.922 327.938 190.297 327.688C191.672 326.781 192.75 325.656 193.531 324.312C194.281 323 194.812 321.672 195.125 320.328C195.438 318.984 195.625 317.844 195.688 316.906C195.688 316.531 195.703 314 195.734 309.312C195.734 304.625 195.734 299.219 195.734 293.094C195.734 290.469 195.734 287.969 195.734 285.594C195.734 282.438 195.734 279.5 195.734 276.781C195.734 272.031 195.734 269.656 195.734 269.656C195.734 267.938 195.594 266.516 195.312 265.391C195.031 264.266 194.672 263.375 194.234 262.719C193.797 262.094 193.328 261.641 192.828 261.359C192.328 261.109 191.859 260.953 191.422 260.891C190.984 260.828 190.609 260.828 190.297 260.891C190.016 260.953 189.844 260.984 189.781 260.984L214.156 247.156V272.562C215.438 270.094 216.844 267.703 218.375 265.391C223 258.547 228.297 253.594 234.266 250.531C238.484 248.438 242.781 247.359 247.156 247.297C247.25 247.297 247.328 247.297 247.391 247.297H247.438C249.719 247.391 251.562 248.219 252.969 249.781ZM327.641 304.344H329.703C326.953 311.125 322.906 316.625 317.562 320.844C312.25 325.031 306.297 327.797 299.703 329.141C293.141 330.484 286.594 330.266 280.062 328.484C273.531 326.703 267.672 323.219 262.484 318.031C257.141 312.781 253.594 306.625 251.844 299.562C250.062 292.469 250.062 285.391 251.844 278.328C253.594 271.266 257.141 265.109 262.484 259.859C267.484 254.859 273.328 251.391 280.016 249.453C286.703 247.516 293.484 247.281 300.359 248.75C300.516 248.75 301.484 248.984 303.266 249.453C305.047 249.922 307.109 250.656 309.453 251.656C311.797 252.625 313.875 253.875 315.688 255.406C317.5 256.906 318.531 258.672 318.781 260.703C318.781 260.703 318.797 261.047 318.828 261.734C318.859 262.422 318.719 263.359 318.406 264.547C318.125 265.734 317.5 267.078 316.531 268.578C315.562 270.078 314.109 271.656 312.172 273.312C310.859 274.375 309.219 275.641 307.25 277.109C305.312 278.578 303.453 279.797 301.672 280.766C297.328 283.453 292.078 286.25 285.922 289.156C279.797 292.062 275 294.172 271.531 295.484C275.031 302.453 279.734 308.312 285.641 313.062C291.547 317.812 298.203 320.453 305.609 320.984C309.141 320.922 312.266 320.062 314.984 318.406C317.734 316.75 320.047 314.844 321.922 312.688C323.797 310.5 325.219 308.562 326.188 306.875C327.156 305.188 327.641 304.344 327.641 304.344ZM266.562 271.062C265.906 278.562 267.297 286.141 270.734 293.797C273.266 292.797 276.719 291.328 281.094 289.391C287.875 286.141 292.984 282.922 296.422 279.734C299.891 276.516 302.125 273.469 303.125 270.594C304.156 267.688 304.391 265.047 303.828 262.672C303.297 260.297 302.391 258.297 301.109 256.672C299.359 254.359 297.188 252.672 294.594 251.609C292 250.516 289.266 249.984 286.391 250.016C280.922 250.547 276.438 252.453 272.938 255.734C269.438 259.016 267.312 264.125 266.562 271.062ZM411.078 318.969C411.234 320 411.516 321.109 411.922 322.297C412.359 323.484 412.969 324.609 413.75 325.672C414.562 326.734 415.609 327.609 416.891 328.297C418.172 328.984 419.75 329.328 421.625 329.328H404.703C401.891 329.328 399.391 328.484 397.203 326.797C395.734 325.641 394.562 324.219 393.688 322.531C392.844 320.844 392.422 319.016 392.422 317.047V304.109C391.109 306.547 389.688 308.938 388.156 311.281C383.531 318.094 378.234 323.031 372.266 326.094C366.953 328.719 361.594 329.75 356.188 329.188C354.219 328.969 352.344 328.531 350.562 327.875C346.938 326.438 343.984 324.266 341.703 321.359C339.422 318.453 338.125 315.234 337.812 311.703V270.078C337.812 268.328 337.672 266.891 337.391 265.766C337.109 264.641 336.75 263.766 336.312 263.141C335.875 262.516 335.406 262.062 334.906 261.781C334.406 261.5 333.938 261.344 333.5 261.312C333.031 261.25 332.656 261.25 332.375 261.312C332.062 261.344 331.891 261.375 331.859 261.406L356.188 247.531V310.156C356.188 311.125 356.312 312.609 356.562 314.609C356.812 316.609 357.375 318.641 358.25 320.703C359.125 322.734 360.453 324.266 362.234 325.297C364.016 326.328 366.438 326.328 369.5 325.297C369.5 325.297 369.5 325.312 369.5 325.344C369.5 325.312 369.5 325.297 369.5 325.297C370.156 325.047 370.797 324.766 371.422 324.453C377.109 321.547 382.172 316.797 386.609 310.203C388.766 306.922 390.703 303.5 392.422 299.938V270.078C392.391 268.328 392.234 266.891 391.953 265.766C391.672 264.641 391.312 263.766 390.875 263.141C390.438 262.516 389.969 262.062 389.469 261.781C388.969 261.5 388.5 261.344 388.062 261.312C387.625 261.25 387.25 261.25 386.938 261.312C386.656 261.344 386.5 261.375 386.469 261.406L410.75 247.578L410.797 247.531V247.578V315.969C410.797 316.562 410.891 317.562 411.078 318.969ZM492.5 249.781C493.75 251.188 494.375 252.828 494.375 254.703C494.375 256.766 493.641 258.531 492.172 260C490.734 261.438 488.984 262.156 486.922 262.156C484.984 262.156 483.297 261.5 481.859 260.188C481.859 260.188 481.547 259.922 480.922 259.391C480.297 258.891 479.438 258.344 478.344 257.75C477.25 257.125 476.031 256.641 474.688 256.297C473.312 255.953 471.875 255.922 470.375 256.203C468.906 256.484 467.453 257.25 466.016 258.5C463.703 260.75 461.531 263.391 459.5 266.422C457.312 269.703 455.375 273.125 453.688 276.688V315.688C453.688 316 453.703 316.469 453.734 317.094C453.828 318.062 454.031 319.203 454.344 320.516C454.688 321.859 455.234 323.172 455.984 324.453C456.766 325.766 457.844 326.859 459.219 327.734C460.562 328.641 462.328 329.094 464.516 329.094H424.438C424.438 329.094 424.641 329.062 425.047 329C425.484 328.938 426 328.859 426.594 328.766C427.219 328.641 427.812 328.5 428.375 328.344C428.969 328.156 429.453 327.938 429.828 327.688C431.203 326.781 432.281 325.656 433.062 324.312C433.812 323 434.344 321.672 434.656 320.328C434.969 318.984 435.156 317.844 435.219 316.906C435.219 316.531 435.234 314 435.266 309.312C435.266 304.625 435.266 299.219 435.266 293.094C435.266 290.469 435.266 287.969 435.266 285.594C435.266 282.438 435.266 279.5 435.266 276.781C435.266 272.031 435.266 269.656 435.266 269.656C435.266 267.938 435.125 266.516 434.844 265.391C434.562 264.266 434.203 263.375 433.766 262.719C433.328 262.094 432.859 261.641 432.359 261.359C431.859 261.109 431.391 260.953 430.953 260.891C430.516 260.828 430.141 260.828 429.828 260.891C429.547 260.953 429.375 260.984 429.312 260.984L453.688 247.156V272.562C454.969 270.094 456.375 267.703 457.906 265.391C462.531 258.547 467.828 253.594 473.797 250.531C478.016 248.438 482.312 247.359 486.688 247.297C486.781 247.297 486.859 247.297 486.922 247.297H486.969C489.25 247.391 491.094 248.219 492.5 249.781Z" fill="#290CEB"/>
</svg>
