<svg id="Calque_1" data-name="Calque 1" xmlns="http://www.w3.org/2000/svg" viewBox="0 0 368.48 368.16"><path d="M458,290.26V165.4c-8.67,2.42-17,4.74-25.38,7.09q-95.86,26.94-191.74,53.81c-3.23.9-3.9,2.33-3.89,5.38q.12,83.28,0,166.55c0,32.53-21.82,59.08-53.6,65.68-36.38,7.56-73.29-18.44-78.26-55.13-5.76-42.45,26.77-78.25,69.52-76.14,17.44.86,32.2,8.11,44.3,20.71.85.89,1.68,1.79,3.29,3.51V174c0-8.25,1-9.51,8.92-11.74Q345.92,130,460.67,97.74a15.28,15.28,0,0,1,7.93-.26c3.57,1,4.38,4.31,4.37,7.84-.06,15.72,0,31.43,0,47.15q0,89.82,0,179.65c-.05,31.76-21.09,57.94-52,65.1-36.06,8.35-71.93-15.31-79.49-52.43-7.16-35.17,17.23-71.17,52.65-77.4,24.05-4.24,44.56,2.73,61.47,20.35Zm.2,42.23a51.55,51.55,0,1,0-51.68,51.62A51.59,51.59,0,0,0,458.19,332.49ZM170.72,347.27a51.55,51.55,0,1,0,51.52,51.65A51.47,51.47,0,0,0,170.72,347.27ZM237,212c1-.17,1.47-.22,1.93-.35l49.63-13.94q82.88-23.29,165.78-46.54c2.82-.79,4-1.89,3.93-5.07-.26-8.72-.09-17.46-.09-26.19v-6.06c-1.7.4-2.79.62-3.85.92L339.31,147.13q-49.08,13.8-98.15,27.64c-1.64.46-4.19,0-4.16,3.18C237.1,189.17,237,200.38,237,212Z" transform="translate(-104.49 -97.07)"/></svg>