<svg width="280" height="63" viewBox="0 0 280 63" fill="none" xmlns="http://www.w3.org/2000/svg">
<rect x="1" y="1" width="278" height="61" rx="30.5" stroke="black" stroke-width="2"/>
<path d="M94.0143 39.144C92.7183 39.144 91.5663 38.808 90.5583 38.136C89.5503 37.448 88.7583 36.472 88.1823 35.208C87.6063 33.928 87.3183 32.392 87.3183 30.6C87.3183 28.808 87.6063 27.28 88.1823 26.016C88.7583 24.736 89.5503 23.76 90.5583 23.088C91.5663 22.4 92.7183 22.056 94.0143 22.056C95.3103 22.056 96.4623 22.4 97.4703 23.088C98.4783 23.76 99.2703 24.736 99.8463 26.016C100.438 27.28 100.734 28.808 100.734 30.6C100.734 32.392 100.438 33.928 99.8463 35.208C99.2703 36.472 98.4783 37.448 97.4703 38.136C96.4623 38.808 95.3103 39.144 94.0143 39.144ZM94.0143 37.56C95.0063 37.56 95.8703 37.296 96.6063 36.768C97.3423 36.224 97.9183 35.44 98.3343 34.416C98.7503 33.376 98.9583 32.104 98.9583 30.6C98.9583 29.096 98.7503 27.832 98.3343 26.808C97.9183 25.768 97.3423 24.984 96.6063 24.456C95.8703 23.912 95.0063 23.64 94.0143 23.64C93.0543 23.64 92.1983 23.912 91.4463 24.456C90.6943 24.984 90.1103 25.768 89.6943 26.808C89.2783 27.832 89.0703 29.096 89.0703 30.6C89.0703 32.104 89.2783 33.376 89.6943 34.416C90.1103 35.44 90.6943 36.224 91.4463 36.768C92.1983 37.296 93.0543 37.56 94.0143 37.56ZM110.097 39.144C108.609 39.144 107.353 38.816 106.329 38.16C105.305 37.488 104.529 36.528 104.001 35.28C103.473 34.016 103.209 32.504 103.209 30.744C103.209 28.84 103.529 27.248 104.169 25.968C104.825 24.672 105.729 23.696 106.881 23.04C108.033 22.384 109.369 22.056 110.889 22.056C111.641 22.056 112.361 22.128 113.049 22.272C113.737 22.416 114.345 22.648 114.873 22.968L114.177 24.36C113.745 24.072 113.249 23.872 112.689 23.76C112.129 23.632 111.537 23.568 110.913 23.568C109.105 23.568 107.657 24.144 106.569 25.296C105.497 26.448 104.961 28.168 104.961 30.456C104.961 30.808 104.977 31.248 105.009 31.776C105.057 32.288 105.153 32.8 105.297 33.312L104.697 32.856C104.873 32.024 105.217 31.32 105.729 30.744C106.241 30.152 106.881 29.704 107.649 29.4C108.417 29.096 109.257 28.944 110.169 28.944C111.289 28.944 112.273 29.152 113.121 29.568C113.969 29.984 114.633 30.568 115.113 31.32C115.593 32.072 115.833 32.96 115.833 33.984C115.833 35.024 115.585 35.936 115.089 36.72C114.593 37.488 113.905 38.088 113.025 38.52C112.161 38.936 111.185 39.144 110.097 39.144ZM110.025 37.68C110.825 37.68 111.529 37.536 112.137 37.248C112.761 36.944 113.249 36.52 113.601 35.976C113.953 35.416 114.129 34.768 114.129 34.032C114.129 32.928 113.745 32.048 112.977 31.392C112.225 30.736 111.201 30.408 109.905 30.408C109.041 30.408 108.289 30.568 107.649 30.888C107.009 31.208 106.505 31.648 106.137 32.208C105.769 32.752 105.585 33.376 105.585 34.08C105.585 34.688 105.753 35.272 106.089 35.832C106.425 36.376 106.921 36.824 107.577 37.176C108.249 37.512 109.065 37.68 110.025 37.68ZM130.499 39.144C129.155 39.144 127.995 38.952 127.019 38.568C126.059 38.184 125.315 37.632 124.787 36.912C124.275 36.176 124.019 35.312 124.019 34.32C124.019 33.36 124.267 32.544 124.763 31.872C125.275 31.184 126.011 30.656 126.971 30.288C127.947 29.92 129.123 29.736 130.499 29.736C131.859 29.736 133.027 29.92 134.003 30.288C134.979 30.656 135.723 31.184 136.235 31.872C136.763 32.544 137.027 33.36 137.027 34.32C137.027 35.312 136.763 36.176 136.235 36.912C135.707 37.632 134.955 38.184 133.979 38.568C133.003 38.952 131.843 39.144 130.499 39.144ZM130.499 37.68C131.987 37.68 133.147 37.376 133.979 36.768C134.827 36.16 135.251 35.336 135.251 34.296C135.251 33.256 134.827 32.44 133.979 31.848C133.147 31.24 131.987 30.936 130.499 30.936C129.011 30.936 127.851 31.24 127.019 31.848C126.187 32.44 125.771 33.256 125.771 34.296C125.771 35.336 126.187 36.16 127.019 36.768C127.851 37.376 129.011 37.68 130.499 37.68ZM130.499 30.72C129.251 30.72 128.187 30.552 127.307 30.216C126.443 29.88 125.779 29.4 125.315 28.776C124.851 28.136 124.619 27.376 124.619 26.496C124.619 25.568 124.859 24.776 125.339 24.12C125.835 23.448 126.523 22.936 127.403 22.584C128.283 22.232 129.315 22.056 130.499 22.056C131.683 22.056 132.715 22.232 133.595 22.584C134.491 22.936 135.187 23.448 135.683 24.12C136.179 24.776 136.427 25.568 136.427 26.496C136.427 27.376 136.195 28.136 135.731 28.776C135.267 29.4 134.587 29.88 133.691 30.216C132.811 30.552 131.747 30.72 130.499 30.72ZM130.499 29.568C131.811 29.568 132.835 29.296 133.571 28.752C134.307 28.208 134.675 27.48 134.675 26.568C134.675 25.608 134.291 24.864 133.523 24.336C132.771 23.792 131.763 23.52 130.499 23.52C129.235 23.52 128.227 23.792 127.475 24.336C126.723 24.864 126.347 25.6 126.347 26.544C126.347 27.472 126.707 28.208 127.427 28.752C128.163 29.296 129.187 29.568 130.499 29.568ZM142.348 39V22.92L143.116 23.736H138.388V22.2H144.076V39H142.348ZM159.389 39.144C158.173 39.144 157.021 38.952 155.933 38.568C154.861 38.168 153.997 37.64 153.341 36.984L154.181 35.616C154.725 36.176 155.453 36.64 156.365 37.008C157.293 37.376 158.301 37.56 159.389 37.56C160.781 37.56 161.845 37.256 162.581 36.648C163.333 36.04 163.709 35.224 163.709 34.2C163.709 33.176 163.341 32.36 162.605 31.752C161.885 31.144 160.741 30.84 159.173 30.84H157.973V29.568L163.157 23.064L163.397 23.736H154.037V22.2H164.837V23.424L159.653 29.928L158.813 29.376H159.461C161.477 29.376 162.981 29.824 163.973 30.72C164.981 31.616 165.485 32.768 165.485 34.176C165.485 35.12 165.261 35.968 164.813 36.72C164.365 37.472 163.685 38.064 162.773 38.496C161.877 38.928 160.749 39.144 159.389 39.144ZM167.491 39V37.776L174.475 30.936C175.115 30.312 175.595 29.768 175.915 29.304C176.235 28.824 176.451 28.376 176.563 27.96C176.675 27.544 176.731 27.152 176.731 26.784C176.731 25.808 176.395 25.04 175.723 24.48C175.067 23.92 174.091 23.64 172.795 23.64C171.803 23.64 170.923 23.792 170.155 24.096C169.403 24.4 168.755 24.872 168.211 25.512L166.987 24.456C167.643 23.688 168.483 23.096 169.507 22.68C170.531 22.264 171.675 22.056 172.939 22.056C174.075 22.056 175.059 22.24 175.891 22.608C176.723 22.96 177.363 23.48 177.811 24.168C178.275 24.856 178.507 25.664 178.507 26.592C178.507 27.136 178.427 27.672 178.267 28.2C178.123 28.728 177.851 29.288 177.451 29.88C177.067 30.456 176.499 31.112 175.747 31.848L169.339 38.136L168.859 37.464H179.275V39H167.491ZM187.437 34.584V33.336L196.341 22.2H198.261L189.429 33.336L188.493 33.048H202.005V34.584H187.437ZM196.917 39V34.584L196.965 33.048V29.16H198.645V39H196.917ZM203.304 34.584V33.336L212.208 22.2H214.128L205.296 33.336L204.36 33.048H217.872V34.584H203.304ZM212.784 39V34.584L212.832 33.048V29.16H214.512V39H212.784ZM230.756 39.144C229.54 39.144 228.388 38.952 227.3 38.568C226.228 38.168 225.364 37.64 224.708 36.984L225.548 35.616C226.092 36.176 226.82 36.64 227.732 37.008C228.66 37.376 229.668 37.56 230.756 37.56C232.148 37.56 233.212 37.256 233.948 36.648C234.7 36.04 235.076 35.224 235.076 34.2C235.076 33.176 234.708 32.36 233.972 31.752C233.252 31.144 232.108 30.84 230.54 30.84H229.34V29.568L234.524 23.064L234.764 23.736H225.404V22.2H236.204V23.424L231.02 29.928L230.18 29.376H230.828C232.844 29.376 234.348 29.824 235.34 30.72C236.348 31.616 236.852 32.768 236.852 34.176C236.852 35.12 236.628 35.968 236.18 36.72C235.732 37.472 235.052 38.064 234.14 38.496C233.244 38.928 232.116 39.144 230.756 39.144ZM245.983 39.144C244.687 39.144 243.535 38.808 242.527 38.136C241.519 37.448 240.727 36.472 240.151 35.208C239.575 33.928 239.287 32.392 239.287 30.6C239.287 28.808 239.575 27.28 240.151 26.016C240.727 24.736 241.519 23.76 242.527 23.088C243.535 22.4 244.687 22.056 245.983 22.056C247.279 22.056 248.431 22.4 249.439 23.088C250.447 23.76 251.239 24.736 251.815 26.016C252.407 27.28 252.703 28.808 252.703 30.6C252.703 32.392 252.407 33.928 251.815 35.208C251.239 36.472 250.447 37.448 249.439 38.136C248.431 38.808 247.279 39.144 245.983 39.144ZM245.983 37.56C246.975 37.56 247.839 37.296 248.575 36.768C249.311 36.224 249.887 35.44 250.303 34.416C250.719 33.376 250.927 32.104 250.927 30.6C250.927 29.096 250.719 27.832 250.303 26.808C249.887 25.768 249.311 24.984 248.575 24.456C247.839 23.912 246.975 23.64 245.983 23.64C245.023 23.64 244.167 23.912 243.415 24.456C242.663 24.984 242.079 25.768 241.663 26.808C241.247 27.832 241.039 29.096 241.039 30.6C241.039 32.104 241.247 33.376 241.663 34.416C242.079 35.44 242.663 36.224 243.415 36.768C244.167 37.296 245.023 37.56 245.983 37.56Z" fill="black"/>
<g clip-path="url(#clip0_352_2)">
<path d="M43.6348 52.0004C43.839 51.911 44.2127 51.8038 44.5255 51.6023C47.3353 49.8021 49.9032 47.6506 52.1666 45.2003C53.345 43.9153 53.2853 43.3229 51.8478 42.2931C49.3656 40.5147 46.776 38.9055 44.0228 37.5765C42.3024 36.7421 42.0433 36.8219 40.7921 38.2595C40.0996 39.0557 39.388 39.8364 38.6943 40.6327C38.4842 40.8711 38.2812 40.9271 37.9601 40.8365C35.2367 40.0617 32.8262 38.6981 30.6771 36.8887C27.518 34.2258 25.2782 30.9408 24.101 26.9584C24.021 26.6902 24.0628 26.5162 24.267 26.3362C25.1425 25.5726 26.0109 24.8034 26.8721 24.0286C28.1031 22.9272 28.1783 22.6423 27.4691 21.15C26.1128 18.2893 24.4234 15.6371 22.5991 13.0625C22.4147 12.8099 22.2024 12.5788 21.9663 12.3735C21.4481 11.911 21.0494 11.8812 20.4775 12.2662C20.1918 12.4549 19.9212 12.6653 19.668 12.8956C17.3363 15.0411 15.3603 17.4918 13.5467 20.0832C13.0059 20.8508 12.9092 21.6184 13.0692 22.5195C13.6148 25.5078 14.7407 28.2767 16.2175 30.9062C19.028 35.9006 22.7161 40.1702 27.0942 43.8617C30.27 46.5436 33.7014 48.8262 37.5673 50.4115C39.4632 51.1875 41.4093 51.768 43.6348 52.0004ZM52.9868 30.545C52.9546 19.5098 43.5811 11.762 34.4404 12.0553V14.8445C38.7708 14.9434 42.4946 16.4405 45.5439 19.4931C48.5932 22.5458 50.0641 26.2659 50.162 30.5474L52.9868 30.545ZM45.8149 30.545C45.9343 24.1645 40.3372 18.983 34.438 19.1916V21.9724C39.2782 22.0916 42.9555 25.9059 43.0343 30.545H45.8149Z" fill="black"/>
<path d="M43.6349 52.0003C41.4094 51.7619 39.4633 51.1874 37.5697 50.4114C33.7038 48.8321 30.2725 46.5435 27.0943 43.8616C22.7221 40.1665 19.0341 35.9004 16.2296 30.9061C14.7455 28.2766 13.6232 25.5077 13.0776 22.5194C12.914 21.6183 13.0155 20.8506 13.5552 20.083C15.3687 17.4917 17.3447 15.0434 19.6764 12.8955C19.9296 12.6652 20.2003 12.4548 20.4859 12.2661C21.0578 11.8835 21.4566 11.9085 21.9747 12.3734C22.2108 12.5786 22.4231 12.8097 22.6075 13.0623C24.4318 15.637 26.1212 18.2951 27.4775 21.1498C28.1939 22.6422 28.1127 22.9271 26.8806 24.0284C26.0154 24.8008 25.147 25.57 24.2754 26.3361C24.1821 26.4063 24.115 26.5058 24.0849 26.6186C24.0548 26.7314 24.0635 26.851 24.1095 26.9583C25.2867 30.9406 27.5265 34.2293 30.6856 36.8886C32.8346 38.698 35.2428 40.0616 37.9685 40.8363C38.2897 40.9269 38.4926 40.8745 38.7028 40.6325C39.3917 39.8363 40.108 39.0579 40.8005 38.2593C42.0517 36.8218 42.3108 36.7443 44.0313 37.5763C46.7844 38.9054 49.3741 40.5145 51.8562 42.2929C53.2889 43.3228 53.3534 43.9152 52.175 45.2001C49.9119 47.6508 47.344 49.8022 44.5339 51.6022C44.2127 51.8036 43.839 51.9109 43.6349 52.0003Z" fill="black"/>
<path d="M52.9868 30.5419H50.1572C50.0593 26.2604 48.5801 22.5331 45.5392 19.4877C42.4982 16.4422 38.7708 14.9403 34.4357 14.839V12.0498C43.5811 11.7613 52.9546 19.5091 52.9868 30.5419Z" fill="black"/>
<path d="M45.815 30.5413H43.0295C42.9555 25.8927 39.2782 22.0891 34.4333 21.9687V19.1879C40.3372 18.9769 45.9367 24.1584 45.815 30.5413Z" fill="black"/>
</g>
<defs>
<clipPath id="clip0_352_2">
<rect width="40" height="40" fill="white" transform="translate(13 12)"/>
</clipPath>
</defs>
</svg>
