<svg id="Calque_1" data-name="Calque 1" xmlns="http://www.w3.org/2000/svg" viewBox="0 0 356.23 356"><path d="M330.94,352.18l-14.62-6.53c-2.32,5.18-4.56,10.14-6.78,15.11Q287.83,409.38,266.13,458c-5.47,12.21-17.26,18.08-29.28,14.69a24.12,24.12,0,0,1-15.7-33c6.66-15.57,13.71-31,20.61-46.44q33.5-75.06,67-150.12c.55-1.23,1-2.48,1.83-4.36-3.94,0-7.48-.2-11,.13-.91.08-2,1.65-2.46,2.76-6.91,15.33-13.63,30.74-20.62,46-4.22,9.23-11.73,14.25-21.82,14.45-9.6.18-17.06-4.24-21.75-12.73a23.07,23.07,0,0,1-.92-21.26c9.39-21.31,18.82-42.61,28.51-63.78,4.28-9.35,12-14.19,22.31-14.24,21.46-.11,42.91,0,64.37,0,11.15,0,19,5.15,23.59,15.24,5.35,11.79,10.7,23.59,15.76,35.51,1.42,3.35,3.06,4.6,6.82,4.55,16.71-.21,33.43-.31,50.14.08,13.73.32,23.92,11.95,23.17,25.57-.69,12.66-10.8,22.65-24.2,22.84-23.32.33-46.65.28-70,0-10.4-.13-17.85-5.53-22.2-15.06-.61-1.34-1.26-2.66-2.15-4.56-4.14,9.26-8,18-12,27l21,9.4c5.46,2.45,11,4.77,16.35,7.38,12.11,5.87,17.34,19.19,11.94,31.54Q368.52,388.17,351,426.6a24.27,24.27,0,0,1-44.19-20.08c7.36-16.9,15-33.68,22.5-50.52C329.84,354.88,330.29,353.74,330.94,352.18Zm76.78-68.69c7.23,0,14.47.05,21.7,0,5.23-.05,10.51.15,15.68-.51,6.33-.81,10.86-6.4,11.17-12.7a13.61,13.61,0,0,0-9.8-13.87,25.45,25.45,0,0,0-6.66-.64c-17.09,0-34.18-.16-51.27.07-4.8.07-7.51-1.51-9.42-6-5.75-13.53-11.89-26.88-17.89-40.3-2.66-6-7.2-9-13.79-9q-32,0-64,0c-6.57,0-11.14,3-13.8,9q-3.42,7.68-6.87,15.35c-7,15.69-14.08,31.35-21,47.09-3.82,8.73.87,17.74,10,19.63,6.37,1.32,12.48-2.1,15.54-8.91q11.11-24.71,22.09-49.46c1.16-2.62,2.47-5,5.81-5,7.86,0,15.72-.1,23.58.06,3.92.08,6,3.28,4.85,7a31.31,31.31,0,0,1-1.61,3.78q-39.36,88.2-78.74,176.39c-4.16,9.33-8.41,18.62-12.41,28-3.73,8.75,1.07,17.65,10.24,19.4,6.41,1.23,12.3-2.18,15.4-9.12q25.78-57.63,51.5-115.31c2.33-5.2,4.48-6,9.7-3.72,6.6,2.92,13.19,5.88,19.78,8.83,6.19,2.77,6.87,4.5,4.12,10.67-8.27,18.54-16.59,37.05-24.81,55.62-4.12,9.3.71,18.6,10.34,20.2,6.32,1,12.08-2.52,15.22-9.55q16.32-36.5,32.57-73c4.38-9.83,1.72-16.74-8.19-21.19-12.84-5.77-25.71-11.47-38.55-17.23-4.19-1.88-5.16-4.23-3.32-8.38,6-13.55,12-27.12,18.24-40.55.84-1.79,3.35-3.87,5.09-3.88s4.12,2.06,5.15,3.84a80.73,80.73,0,0,1,5.56,12.23c3,8,8.59,11.37,17,11.18C386.51,283.31,397.11,283.49,407.72,283.49Z" transform="translate(-110.53 -117.63)"/><path d="M375.1,189.5a35.94,35.94,0,0,1,.47-71.87,35.94,35.94,0,1,1-.47,71.87Zm.27-10.47a25.41,25.41,0,0,0,25.47-25.44,25.46,25.46,0,1,0-50.92.08A25.25,25.25,0,0,0,375.37,179Z" transform="translate(-110.53 -117.63)"/><path d="M165.2,300.89H118.49a24.8,24.8,0,0,1-3-.05c-3-.36-4.77-2.07-5-5.1-.18-2.81,2-5,5.15-5.3,1-.08,2,0,3,0h93.41c.63,0,1.25,0,1.87,0,3.95.1,6.37,2.15,6.31,5.33s-2.4,5-6.12,5.14c-.87,0-1.75,0-2.62,0Z" transform="translate(-110.53 -117.63)"/><path d="M177.22,269.36q-18.5,0-37,0a13.33,13.33,0,0,1-4-.49c-2.59-.85-4.1-3-3.21-5.48.63-1.76,2.67-3.09,4.28-4.37.55-.43,1.7-.12,2.57-.12h75.49c.62,0,1.25,0,1.87,0,3.09.2,4.87,1.87,5,4.94s-1.67,5-4.61,5.35a62,62,0,0,1-7.84.16Z" transform="translate(-110.53 -117.63)"/><path d="M205.94,332.42c-12.83,0-25.67,0-38.5,0-3.08,0-5.44-.9-6.1-4.2s1.51-6,5.23-6.23c3.23-.19,6.48-.07,9.71-.07h66.16a20,20,0,0,1,3.72.14c3,.57,4.7,2.38,4.51,5.47s-2,4.78-5.11,4.82c-5.61.08-11.22,0-16.82,0Z" transform="translate(-110.53 -117.63)"/></svg>