<svg width="225" height="64" viewBox="0 0 225 64" fill="none" xmlns="http://www.w3.org/2000/svg">
<rect width="225" height="64" rx="32" fill="black"/>
<g clip-path="url(#clip0_362_29)">
<path d="M22 30.2086C22.2158 29.7496 22.5215 29.41 23.084 29.4207C23.3387 29.4228 23.5836 29.5186 23.7715 29.6896C23.9594 29.8605 24.077 30.0945 24.1016 30.3465C24.1162 30.5008 24.1143 30.656 24.1143 30.8113C24.1143 33.8798 24.1035 36.9483 24.1191 40.0168C24.1289 42.0547 25.0518 43.556 26.9033 44.4643C27.5369 44.7626 28.2317 44.9103 28.9326 44.8961C36.6494 44.8961 44.366 44.8961 52.0821 44.8961C54.8282 44.8912 56.8673 42.8136 56.8829 40.044C56.8946 36.9386 56.8829 33.8332 56.8878 30.7278C56.8878 30.1097 57.1934 29.7128 57.7275 29.5944C58.2226 29.4837 58.67 29.736 58.9356 30.2737C58.954 30.3025 58.9756 30.3292 59 30.3532V40.8883C58.9696 40.9759 58.9448 41.0653 58.9258 41.1561C58.7784 42.2256 58.3667 43.2422 57.7275 44.1149C56.293 46.048 54.3545 46.9951 51.9336 46.9943C45.9003 46.9896 39.8675 46.9896 33.835 46.9943C32.125 46.9943 30.417 47.0194 28.7051 46.9815C25.8232 46.9165 23.3994 45.1689 22.416 42.471C22.2295 41.9587 22.1406 41.4162 22 40.8883V30.2086Z" fill="white"/>
<path d="M39.4346 35.3676V34.8474C39.4346 28.0292 39.4346 21.211 39.4346 14.3927C39.4294 14.2021 39.4425 14.0113 39.4736 13.8231C39.5248 13.5896 39.6552 13.3807 39.843 13.2315C40.0308 13.0823 40.2645 13.0017 40.505 13.0034C40.7454 13.0052 40.978 13.089 41.1636 13.2409C41.3492 13.3928 41.4766 13.6035 41.5244 13.8377C41.5533 14.0264 41.565 14.2174 41.5596 14.4083C41.5596 21.2142 41.5596 28.0202 41.5596 34.8262V35.3462C41.706 35.2085 41.7978 35.1269 41.8838 35.0417C43.3701 33.571 44.8538 32.1031 46.3349 30.6377C46.5011 30.466 46.7004 30.3294 46.9209 30.236C47.1337 30.1675 47.363 30.1684 47.5749 30.2388C47.7871 30.3091 47.971 30.4451 48.0998 30.6268C48.2285 30.8085 48.2952 31.0265 48.2903 31.2486C48.2854 31.4708 48.209 31.6856 48.0722 31.8615C47.9821 31.9729 47.8842 32.078 47.7794 32.1759C45.6693 34.2707 43.5582 36.3649 41.4463 38.4584C40.7627 39.1378 40.25 39.1427 39.5664 38.4652C37.429 36.3477 35.2907 34.2303 33.1514 32.1128C32.8145 31.78 32.5996 31.4189 32.7519 30.9308C32.7993 30.7695 32.8851 30.6219 33.0023 30.5007C33.1194 30.3795 33.2643 30.2882 33.4245 30.2346C33.5848 30.181 33.7558 30.1668 33.9228 30.193C34.0898 30.2193 34.248 30.2853 34.3838 30.3854C34.5072 30.4806 34.6229 30.5854 34.7295 30.6989C36.2676 32.2234 37.8076 33.7528 39.4346 35.3676Z" fill="white"/>
</g>
<path d="M94.5915 41V24.2H96.0555L103.735 37.304H102.967L110.575 24.2H112.039V41H110.335V26.864H110.743L103.735 38.864H102.895L95.8395 26.864H96.2955V41H94.5915ZM122.289 41.12C121.073 41.12 119.977 40.848 119.001 40.304C118.041 39.744 117.281 38.984 116.721 38.024C116.161 37.048 115.881 35.936 115.881 34.688C115.881 33.424 116.161 32.312 116.721 31.352C117.281 30.392 118.041 29.64 119.001 29.096C119.961 28.552 121.057 28.28 122.289 28.28C123.537 28.28 124.641 28.552 125.601 29.096C126.577 29.64 127.337 30.392 127.881 31.352C128.441 32.312 128.721 33.424 128.721 34.688C128.721 35.936 128.441 37.048 127.881 38.024C127.337 38.984 126.577 39.744 125.601 40.304C124.625 40.848 123.521 41.12 122.289 41.12ZM122.289 39.608C123.201 39.608 124.009 39.408 124.713 39.008C125.417 38.592 125.969 38.016 126.369 37.28C126.785 36.528 126.993 35.664 126.993 34.688C126.993 33.696 126.785 32.832 126.369 32.096C125.969 31.36 125.417 30.792 124.713 30.392C124.009 29.976 123.209 29.768 122.313 29.768C121.417 29.768 120.617 29.976 119.913 30.392C119.209 30.792 118.649 31.36 118.233 32.096C117.817 32.832 117.609 33.696 117.609 34.688C117.609 35.664 117.817 36.528 118.233 37.28C118.649 38.016 119.209 38.592 119.913 39.008C120.617 39.408 121.409 39.608 122.289 39.608ZM138.632 28.28C139.656 28.28 140.552 28.48 141.32 28.88C142.104 29.264 142.712 29.856 143.144 30.656C143.592 31.456 143.816 32.464 143.816 33.68V41H142.112V33.848C142.112 32.52 141.776 31.52 141.104 30.848C140.448 30.16 139.52 29.816 138.32 29.816C137.424 29.816 136.64 30 135.968 30.368C135.312 30.72 134.8 31.24 134.432 31.928C134.08 32.6 133.904 33.416 133.904 34.376V41H132.2V28.4H133.832V31.856L133.568 31.208C133.968 30.296 134.608 29.584 135.488 29.072C136.368 28.544 137.416 28.28 138.632 28.28ZM162.356 41.144C161.092 41.144 159.924 40.936 158.852 40.52C157.78 40.088 156.852 39.488 156.068 38.72C155.284 37.952 154.668 37.048 154.22 36.008C153.788 34.968 153.572 33.832 153.572 32.6C153.572 31.368 153.788 30.232 154.22 29.192C154.668 28.152 155.284 27.248 156.068 26.48C156.868 25.712 157.804 25.12 158.876 24.704C159.948 24.272 161.116 24.056 162.38 24.056C163.596 24.056 164.74 24.264 165.812 24.68C166.884 25.08 167.788 25.688 168.524 26.504L167.396 27.632C166.708 26.928 165.948 26.424 165.116 26.12C164.284 25.8 163.388 25.64 162.428 25.64C161.42 25.64 160.484 25.816 159.62 26.168C158.756 26.504 158.004 26.992 157.364 27.632C156.724 28.256 156.22 28.992 155.852 29.84C155.5 30.672 155.324 31.592 155.324 32.6C155.324 33.608 155.5 34.536 155.852 35.384C156.22 36.216 156.724 36.952 157.364 37.592C158.004 38.216 158.756 38.704 159.62 39.056C160.484 39.392 161.42 39.56 162.428 39.56C163.388 39.56 164.284 39.4 165.116 39.08C165.948 38.76 166.708 38.248 167.396 37.544L168.524 38.672C167.788 39.488 166.884 40.104 165.812 40.52C164.74 40.936 163.588 41.144 162.356 41.144ZM176.899 41L169.459 24.2H171.379L178.339 40.016H177.283L184.291 24.2H186.091L178.651 41H176.899Z" fill="white"/>
<defs>
<clipPath id="clip0_362_29">
<rect width="37" height="34" fill="white" transform="translate(22 13)"/>
</clipPath>
</defs>
</svg>
