<svg width="311" height="433" viewBox="0 0 311 433" fill="none" xmlns="http://www.w3.org/2000/svg">
<path d="M107.742 49.9295C143.312 141.475 166.84 174.838 219.898 174.984C236.311 175.03 255.681 171.892 279.582 166.465C231.626 195.072 208.182 215.662 197.593 247.323C187.432 277.713 190.072 315.408 202.926 383.094C167.355 291.548 143.828 258.089 90.8701 257.943C74.4573 257.898 55.0675 261.011 31.1659 266.462C79.1426 237.928 102.526 217.313 113.155 185.677C123.316 155.286 120.676 117.591 107.823 49.9057L107.742 49.9295ZM93.7637 0.256805C133.462 189.331 127.203 207.978 0.278131 278.948C38.7411 269.026 67.6773 262.677 90.8614 262.741C149.479 262.903 170.283 304.414 217.187 432.695C177.468 243.645 183.727 224.998 310.672 154.004C271.926 163.973 242.99 170.298 219.907 170.234C161.29 170.072 140.485 128.561 93.5817 0.256302L93.7637 0.256805Z" fill="#290CEB"/>
</svg>
