<svg width="48" height="48" viewBox="0 0 48 48" fill="none" xmlns="http://www.w3.org/2000/svg">
<g clip-path="url(#clip0_40_34)">
<path d="M23.9992 48.0039C19.2517 48.0046 14.6106 46.5972 10.6631 43.9598C6.71561 41.3223 3.63898 37.5734 1.82241 33.1872C0.00584223 28.801 -0.469052 23.9746 0.457801 19.3184C1.38465 14.6623 3.67161 10.3856 7.02939 7.0294C11.5372 2.56194 17.631 0.0618648 23.9776 0.0761719C30.3241 0.090479 36.4066 2.61801 40.8942 7.10574C45.3818 11.5935 47.9092 17.676 47.9234 24.0226C47.9375 30.3691 45.4373 36.4629 40.9698 40.9706C38.7467 43.2069 36.1021 44.98 33.189 46.1873C30.276 47.3946 27.1525 48.012 23.9992 48.0039ZM23.9992 1.02921C11.3316 1.02921 1.02525 11.3355 1.02525 24.0039C1.02525 36.6723 11.3316 46.9787 23.9992 46.9787C36.6668 46.9787 46.9739 36.6684 46.9739 24C46.9739 11.3316 36.6676 1.02526 23.9992 1.02526V1.02921Z" fill="#290CEB"/>
<path d="M9.84893 15.0462C12.9247 15.0462 15.9919 15.0368 19.063 15.051C19.5585 15.0506 20.0522 15.1094 20.5338 15.2261C22.317 15.6685 23.4582 16.7726 23.8242 18.6102C23.986 19.3509 23.9731 20.1192 23.7863 20.854C23.4779 21.9999 22.8147 22.6206 21.4613 23.0505C22.0181 23.1033 22.5165 23.2287 22.9598 23.5197C23.6049 23.9432 24.0024 24.5576 24.228 25.2745C24.6429 26.5438 24.6632 27.9091 24.2863 29.1902C23.8194 30.7763 22.6916 31.7219 21.1687 32.2432C20.3996 32.4959 19.594 32.6196 18.7846 32.6091C15.9248 32.6091 13.0649 32.6091 10.2046 32.6091C10.0855 32.6091 9.96802 32.6217 9.84814 32.6281L9.84893 15.0462ZM13.8885 29.4434C13.9177 29.4568 13.9335 29.471 13.95 29.471C15.5676 29.471 17.1836 29.5041 18.8043 29.46C19.9542 29.4284 20.5764 28.8677 20.7515 27.8077C20.8019 27.4417 20.8082 27.0711 20.7704 26.7036C20.675 25.4859 19.8982 24.78 18.686 24.78H13.8885V29.4434ZM13.8885 22.0678C15.5652 22.0678 17.2104 22.0796 18.8571 22.0615C19.4171 22.0552 19.8311 21.7783 20.0204 21.2168C20.2107 20.628 20.2516 20.0011 20.1395 19.3926C20.0236 18.6946 19.5819 18.1307 18.6213 18.1575C17.152 18.1946 15.6804 18.167 14.2103 18.167H13.8869L13.8885 22.0678Z" fill="#290CEB"/>
<path d="M38.0423 27.1389H28.9962C28.986 27.9765 29.1713 28.7226 29.751 29.3259C30.3819 29.9813 31.1935 30.1776 32.0634 30.1721C32.4395 30.1674 32.8142 30.1246 33.1817 30.0444C34.1186 29.844 34.759 29.3267 34.8734 28.2982H37.9287C37.9669 28.8759 37.8792 29.455 37.6716 29.9955C37.1976 31.2841 36.2283 32.0728 34.9759 32.4963C32.9743 33.1777 30.9482 33.173 28.9544 32.4577C27.2257 31.8362 26.1334 30.5617 25.59 28.8393C24.8865 26.616 25.1554 24.474 26.2998 22.4558C27.1957 20.8784 28.5916 19.9738 30.3567 19.6505C31.6264 19.4186 32.8986 19.4368 34.1478 19.8082C35.7078 20.2704 36.7922 21.2704 37.4405 22.7578C38.0084 24.0615 38.1503 25.433 38.088 26.8361C38.0784 26.9378 38.0631 27.0389 38.0423 27.1389ZM28.9726 24.7626H34.666C34.6526 23.4448 33.8773 22.2042 32.2834 22.0993C30.4269 21.9779 29.2431 23.1806 28.9726 24.7626Z" fill="#290CEB"/>
<path d="M28.1839 18.2317V16.0818H35.3971V18.2317H28.1839Z" fill="#290CEB"/>
</g>
<defs>
<clipPath id="clip0_40_34">
<rect width="48" height="48" fill="white"/>
</clipPath>
</defs>
</svg>
