<svg width="48" height="48" viewBox="0 0 48 48" fill="none" xmlns="http://www.w3.org/2000/svg">
<g clip-path="url(#clip0_70_58)">
<path d="M24.002 48C10.7481 48.0016 0.00317486 37.2578 0.00317486 24.0036C0.00225244 20.8515 0.62231 17.7301 1.82793 14.8177C3.03355 11.9053 4.80111 9.25897 7.02964 7.02985C16.4014 -2.343 31.5971 -2.34379 40.9696 7.02907C50.3422 16.4019 50.343 31.5973 40.9696 40.9702C38.7468 43.2058 36.1025 44.9782 33.19 46.1849C30.2775 47.3916 27.1546 48.0085 24.002 48ZM24.002 1.18057C11.4182 1.18057 1.1829 11.4178 1.1829 24.0004C1.1829 36.583 11.4198 46.8203 24.002 46.8203C36.5842 46.8203 46.8211 36.583 46.8211 24.0004C46.8211 11.4178 36.5842 1.18057 24.002 1.18057Z" fill="#290CEB"/>
<path d="M11.0414 30.2815V17.6186C11.0564 17.54 11.0705 17.4558 11.0878 17.3748C11.183 16.9171 11.2365 16.446 11.3828 16.0047C12.3745 13.016 14.9927 11.1032 18.1277 11.0914C21.9815 11.0764 25.8297 11.0859 29.6811 11.0914C30.901 11.0914 32.0642 11.3588 33.1173 11.9754C35.509 13.3715 36.7454 15.4785 36.7627 18.2479C36.787 22.0483 36.7737 25.8487 36.7627 29.6523C36.7698 30.1296 36.726 30.6063 36.6321 31.0743C35.9903 33.9561 34.2357 35.8028 31.391 36.5995C31.0158 36.7049 30.6218 36.7427 30.2356 36.8119H17.5732C17.3105 36.7702 17.0447 36.7419 16.7867 36.6837C13.9019 36.0317 12.0513 34.2825 11.2538 31.4345C11.1484 31.0593 11.1107 30.6653 11.0414 30.2815ZM35.2534 23.9501C35.2534 22.075 35.2613 20.1992 35.2471 18.3241C35.2507 17.8724 35.2061 17.4215 35.1142 16.9792C34.5188 14.3523 32.3371 12.6149 29.6261 12.6078C25.8158 12.5978 22.0058 12.5978 18.1961 12.6078C17.3758 12.6078 16.5744 12.7391 15.8366 13.1017C13.6809 14.1556 12.5814 15.9001 12.5672 18.2927C12.5452 22.0679 12.557 25.8432 12.5672 29.6184C12.562 30.0525 12.6042 30.4858 12.6931 30.9107C13.2845 33.5392 15.4623 35.2853 18.1717 35.2939C21.9904 35.3065 25.8088 35.3065 29.6269 35.2939C31.5451 35.2868 33.0929 34.5074 34.227 32.9509C34.9459 31.9638 35.2495 30.8407 35.2495 29.6279C35.2531 27.7345 35.2544 25.8416 35.2534 23.9493V23.9501Z" fill="#290CEB"/>
<path d="M17.574 36.8512C17.4844 36.8371 17.401 36.8253 17.3176 36.8135C17.1399 36.7883 16.9558 36.7623 16.7781 36.7214C13.8846 36.0678 12.0136 34.2927 11.2153 31.4447C11.1484 31.1846 11.0972 30.9206 11.0619 30.6543C11.043 30.5316 11.0242 30.4089 11.0029 30.2878V17.6186L11.0179 17.54C11.0281 17.4834 11.0383 17.4267 11.0501 17.3709C11.08 17.2278 11.106 17.0807 11.1288 16.9391C11.1778 16.6198 11.2495 16.3044 11.3435 15.9953C11.807 14.557 12.7104 13.3006 13.9263 12.4033C15.1484 11.5209 16.6188 11.0489 18.1261 11.0552C21.1415 11.0434 24.2072 11.0466 27.1707 11.0505H29.6788C30.9655 11.0505 32.1279 11.3502 33.1346 11.94C35.5491 13.3558 36.7824 15.4793 36.7997 18.251C36.8217 21.7305 36.8122 25.269 36.7997 28.6904V29.6531C36.8076 30.1328 36.7636 30.6119 36.6683 31.0821C36.025 33.9694 34.2522 35.8382 31.3989 36.6373C31.1383 36.7059 30.8738 36.7584 30.6069 36.7946C30.4842 36.8135 30.3615 36.8323 30.2396 36.8536L17.574 36.8512ZM11.0808 30.2768C11.1028 30.3979 11.1209 30.5198 11.1398 30.6417C11.1743 30.9052 11.225 31.1663 11.2916 31.4235C12.0781 34.2416 13.9326 35.9978 16.797 36.6451C16.9716 36.6845 17.154 36.7104 17.3302 36.7356C17.4144 36.7474 17.4977 36.76 17.5819 36.7733H30.2364C30.352 36.7521 30.4724 36.7332 30.599 36.7144C30.864 36.68 31.1267 36.6293 31.3855 36.5626C34.2082 35.7721 35.962 33.923 36.5983 31.0664C36.6929 30.6006 36.7364 30.1259 36.7281 29.6507V28.6888C36.7375 25.2675 36.747 21.729 36.7281 18.2502C36.7108 15.5053 35.4909 13.4045 33.1024 12.0061C32.1075 11.4241 30.9584 11.1284 29.6859 11.1276H27.1778C24.2135 11.1236 21.1478 11.1205 18.1332 11.1323C15.0392 11.1441 12.4068 13.0624 11.4253 16.0189C11.3328 16.3239 11.2621 16.6351 11.2137 16.9501C11.1878 17.0933 11.1618 17.2403 11.1351 17.3843C11.1233 17.4401 11.113 17.496 11.1028 17.5518L11.0887 17.6304L11.0808 30.2768ZM23.8132 35.3419C21.9374 35.3419 20.053 35.3419 18.1717 35.3325C16.8347 35.3277 15.6031 34.907 14.6137 34.1142C13.6243 33.3213 12.9471 32.2171 12.6545 30.9186C12.5633 30.49 12.5195 30.0527 12.524 29.6145V28.8445C12.5146 25.3839 12.5051 21.806 12.524 18.2864C12.5381 15.882 13.6455 14.125 15.8154 13.064C16.4997 12.7297 17.2783 12.5669 18.1961 12.5661H19.6771C22.9378 12.5661 26.3095 12.5606 29.6261 12.5661C30.9631 12.5661 32.1971 12.9885 33.1881 13.7781C34.1791 14.5678 34.8578 15.6705 35.1543 16.9682C35.248 17.4148 35.2923 17.8703 35.2865 18.3265C35.2967 19.6982 35.2951 21.0927 35.2935 22.4415C35.2935 22.9449 35.2935 23.4485 35.2935 23.9524V25.656C35.2935 26.9805 35.2935 28.305 35.2935 29.6295C35.2935 30.9099 34.9451 32.0354 34.2601 32.9753C33.1244 34.5341 31.5656 35.3277 29.6293 35.3348C27.7087 35.338 25.7653 35.3419 23.8132 35.3419ZM24.7845 12.64C23.0676 12.64 21.3578 12.64 19.6771 12.64H18.1961C17.2901 12.64 16.5233 12.8013 15.85 13.13C13.7092 14.1761 12.6168 15.9096 12.6026 18.2825C12.5814 21.8013 12.5908 25.3799 12.6026 28.8398V29.6098C12.598 30.0422 12.6413 30.4737 12.7316 30.8965C13.316 33.492 15.5024 35.2404 18.1725 35.2491C22.0106 35.2617 25.8644 35.2617 29.6269 35.2491C31.5373 35.242 33.0749 34.4626 34.1948 32.9218C34.8704 31.9961 35.2133 30.8855 35.2133 29.6224C35.2133 28.2979 35.2133 26.9734 35.2133 25.6489V23.9493C35.2133 23.4459 35.2133 22.9423 35.2133 22.4384C35.2133 21.0895 35.2133 19.695 35.2062 18.3234C35.2109 17.8742 35.1666 17.4259 35.0741 16.9863C34.4874 14.3971 32.297 12.6518 29.6245 12.6455C28.0185 12.6416 26.3984 12.64 24.7845 12.64Z" fill="#290CEB"/>
<path d="M23.8989 16.8998C27.7779 16.8872 30.9679 20.0765 30.9569 23.9563C30.9527 25.8234 30.2092 27.6128 28.8889 28.9329C27.5687 30.253 25.7793 30.9964 23.9123 31.0003C20.0334 31.0129 16.8434 27.8236 16.8544 23.9445C16.8588 22.0775 17.6024 20.2882 18.9225 18.9679C20.2427 17.6477 22.032 16.9041 23.8989 16.8998ZM23.8934 29.4839C25.3579 29.4865 26.7636 28.9084 27.8028 27.8765C28.8419 26.8446 29.4297 25.4428 29.4374 23.9784C29.4578 20.9298 26.9765 18.4327 23.9178 18.4224C22.4533 18.4199 21.0475 18.9979 20.0082 20.0298C18.969 21.0617 18.381 22.4635 18.3731 23.928C18.3527 26.9734 20.8332 29.4706 23.8934 29.4808V29.4839Z" fill="#290CEB"/>
<path d="M23.8887 31.0397C22.0085 31.0383 20.2058 30.2901 18.8773 28.9596C17.5487 27.629 16.8031 25.8252 16.8044 23.9449C16.8058 22.0647 17.554 20.2619 18.8845 18.9333C20.215 17.6047 22.0187 16.8591 23.8989 16.8604H23.9217C24.8527 16.8611 25.7745 17.0451 26.6344 17.4019C27.4943 17.7588 28.2754 18.2815 28.9333 18.9403C29.5912 19.5991 30.1129 20.381 30.4686 21.2413C30.8243 22.1017 31.007 23.0238 31.0064 23.9548C31.0058 24.8858 30.8218 25.8076 30.465 26.6675C30.1081 27.5274 29.5854 28.3086 28.9266 28.9665C28.2679 29.6244 27.486 30.1461 26.6257 30.5018C25.7653 30.8575 24.8433 31.0403 23.9123 31.0397H23.8887ZM23.9217 16.9391H23.8989C22.0441 16.9492 20.2681 17.6905 18.9564 19.0021C17.6447 20.3136 16.9033 22.0896 16.8929 23.9446C16.8954 25.8011 17.6326 27.5813 18.9434 28.896C20.2543 30.2107 22.0322 30.9531 23.8887 30.961H23.9123C25.767 30.9509 27.5429 30.2097 28.8546 28.8983C30.1662 27.5869 30.9078 25.8111 30.9183 23.9563C30.9161 22.0996 30.179 20.3193 28.8681 19.0044C27.5572 17.6895 25.7792 16.947 23.9225 16.9391H23.9217ZM23.9123 29.5233H23.8927C22.4154 29.5223 20.9991 28.9346 19.9552 27.8893C18.9113 26.8441 18.3254 25.4269 18.3263 23.9497C18.3272 22.4724 18.915 21.056 19.9602 20.0121C21.0054 18.9681 22.4225 18.3822 23.8997 18.3831H23.9178C24.6503 18.3853 25.3751 18.5318 26.0509 18.8142C26.7267 19.0966 27.3403 19.5094 27.8565 20.029C28.3727 20.5486 28.7815 21.1648 29.0595 21.8425C29.3375 22.5201 29.4793 23.2459 29.4767 23.9784C29.4555 27.0371 26.9615 29.5201 23.9123 29.5201V29.5233ZM23.8934 29.4446H23.9123C26.9183 29.4446 29.3768 26.9962 29.3981 23.9776C29.4005 23.2555 29.2607 22.5399 28.9866 21.8718C28.7124 21.2038 28.3093 20.5963 27.8003 20.084C27.2913 19.5718 26.6864 19.1649 26.0201 18.8865C25.3538 18.6082 24.6391 18.4638 23.917 18.4618H23.8997C22.4494 18.4665 21.0595 19.0434 20.032 20.067C19.0046 21.0907 18.4226 22.4785 18.4124 23.9288C18.4099 24.651 18.5498 25.3665 18.8239 26.0346C19.098 26.7026 19.5011 27.3102 20.0101 27.8224C20.5191 28.3346 21.1241 28.7415 21.7904 29.0199C22.4567 29.2982 23.1713 29.4426 23.8934 29.4446Z" fill="#290CEB"/>
<path d="M33.5208 16.468C33.5182 17.0342 33.2932 17.5767 32.8944 17.9786C32.4956 18.3806 31.9548 18.6097 31.3887 18.6167C30.2317 18.6238 29.2478 17.6454 29.2392 16.479C29.2305 15.3126 30.2042 14.3428 31.3776 14.3358C31.9441 14.3357 32.4876 14.56 32.8892 14.9596C33.2908 15.3592 33.5179 15.9015 33.5208 16.468ZM32.0013 16.4821C32.0027 16.4004 31.9878 16.3192 31.9576 16.2432C31.9274 16.1672 31.8825 16.098 31.8254 16.0395C31.7682 15.981 31.7001 15.9344 31.6249 15.9024C31.5497 15.8703 31.4688 15.8535 31.3871 15.8529C31.2218 15.8529 31.0632 15.9179 30.9455 16.0339C30.8278 16.1498 30.7604 16.3075 30.7579 16.4727C30.7639 16.6327 30.8294 16.7848 30.9415 16.8991C31.0537 17.0134 31.2044 17.0818 31.3643 17.0909C31.529 17.093 31.688 17.0305 31.8072 16.9167C31.9263 16.8028 31.996 16.6468 32.0013 16.4821Z" fill="#290CEB"/>
<path d="M31.3776 18.6561C30.205 18.6561 29.2093 17.6619 29.1998 16.479C29.1987 16.1962 29.2538 15.9159 29.3618 15.6546C29.4698 15.3932 29.6286 15.1558 29.829 14.9563C30.0309 14.7491 30.2718 14.5841 30.5379 14.4709C30.804 14.3576 31.09 14.2983 31.3792 14.2964H31.3926C31.9671 14.3001 32.517 14.5302 32.9231 14.9367C33.3291 15.3432 33.5586 15.8934 33.5617 16.468C33.556 17.0436 33.3261 17.5942 32.9207 18.0029C32.5153 18.4115 31.9665 18.6458 31.391 18.6561H31.3776ZM31.391 14.3751H31.3776C31.0987 14.3769 30.823 14.4341 30.5665 14.5435C30.3099 14.6529 30.0777 14.8122 29.8833 15.0121C29.6902 15.2042 29.5372 15.4326 29.4332 15.6843C29.3293 15.936 29.2764 16.2059 29.2777 16.4782C29.2864 17.6186 30.2467 18.5774 31.3768 18.5774H31.3878C31.9427 18.5676 32.4718 18.3417 32.8627 17.9477C33.2535 17.5538 33.4752 17.0229 33.4807 16.468C33.4795 16.1909 33.4233 15.9168 33.3153 15.6616C33.2073 15.4064 33.0496 15.1752 32.8515 14.9815C32.4641 14.594 31.9389 14.3759 31.391 14.3751ZM31.3839 17.1342H31.3674C31.1975 17.1241 31.0373 17.0513 30.9181 16.9298C30.799 16.8082 30.7292 16.6467 30.7225 16.4766C30.7225 16.3906 30.7397 16.3055 30.7731 16.2262C30.8064 16.1469 30.8553 16.0751 30.9167 16.0149C31.0405 15.8899 31.2087 15.8189 31.3847 15.8175C31.4714 15.8181 31.5572 15.8359 31.637 15.8697C31.7168 15.9036 31.7892 15.9529 31.8499 16.0148C31.9107 16.0767 31.9586 16.15 31.9909 16.2305C32.0232 16.3109 32.0393 16.397 32.0383 16.4837C32.036 16.571 32.0166 16.6569 31.9811 16.7367C31.9456 16.8165 31.8947 16.8884 31.8314 16.9485C31.7113 17.065 31.5513 17.1314 31.3839 17.1342ZM31.3839 15.8954C31.2287 15.8971 31.0803 15.9598 30.971 16.07C30.9171 16.123 30.8742 16.1861 30.8449 16.2558C30.8156 16.3255 30.8005 16.4003 30.8003 16.4758C30.8063 16.6257 30.8679 16.768 30.973 16.875C31.0781 16.982 31.2192 17.046 31.369 17.0547C31.5216 17.0564 31.6686 16.9976 31.7779 16.8911C31.834 16.8383 31.8791 16.7749 31.9105 16.7046C31.942 16.6342 31.9592 16.5584 31.9612 16.4813C31.9621 16.4047 31.9478 16.3287 31.919 16.2576C31.8903 16.1866 31.8477 16.122 31.7937 16.0676C31.7408 16.0131 31.6775 15.9697 31.6075 15.9401C31.5375 15.9105 31.4623 15.8953 31.3863 15.8954H31.3839Z" fill="#290CEB"/>
</g>
<defs>
<clipPath id="clip0_70_58">
<rect width="48" height="48" fill="white"/>
</clipPath>
</defs>
</svg>
