<svg width="48" height="48" viewBox="0 0 48 48" fill="none" xmlns="http://www.w3.org/2000/svg">
<g clip-path="url(#clip0_38_29)">
<path d="M23.9992 48.0039C19.2517 48.0046 14.6106 46.5972 10.6631 43.9598C6.71561 41.3223 3.63898 37.5734 1.82241 33.1872C0.00584223 28.801 -0.469052 23.9746 0.457801 19.3184C1.38465 14.6623 3.67161 10.3856 7.02939 7.0294C11.5372 2.56194 17.631 0.0618648 23.9776 0.0761719C30.3241 0.090479 36.4066 2.61801 40.8942 7.10574C45.3818 11.5935 47.9092 17.676 47.9234 24.0226C47.9375 30.3691 45.4373 36.4629 40.9698 40.9706C38.7467 43.2069 36.1021 44.98 33.189 46.1873C30.276 47.3946 27.1525 48.012 23.9992 48.0039ZM23.9992 1.02921C11.3316 1.02921 1.02525 11.3355 1.02525 24.0039C1.02525 36.6723 11.3316 46.9787 23.9992 46.9787C36.6668 46.9787 46.9739 36.6684 46.9739 24C46.9739 11.3316 36.6676 1.02526 23.9992 1.02526V1.02921Z" fill="#290CEB"/>
<path d="M26.2319 33.6864H21.4944V18.4028H26.0411V20.4131L26.0971 20.4234C26.2106 20.2585 26.3147 20.0866 26.4393 19.9312C27.5198 18.581 28.9631 18.0179 30.6548 18.0203C31.7652 18.0203 32.8457 18.178 33.8284 18.7419C34.957 19.391 35.5595 20.4218 35.901 21.6371C36.1595 22.6005 36.2879 23.5941 36.2827 24.5915C36.3025 27.5459 36.2922 30.501 36.2938 33.4554C36.2938 33.5106 36.289 33.565 36.2851 33.6391H31.5302V33.3047C31.5302 30.9837 31.546 28.6626 31.5207 26.3423C31.524 25.543 31.4564 24.7449 31.3188 23.9574C31.0539 22.5717 30.0459 22.0741 28.7076 22.1947C27.0245 22.3469 26.5151 23.4495 26.3416 24.6475C26.2675 25.2104 26.2317 25.7777 26.2343 26.3455C26.2232 28.676 26.2296 31.0065 26.2296 33.3363L26.2319 33.6864Z" fill="#290CEB"/>
<path d="M13.7512 33.6746V18.3997H18.4832V33.6746H13.7512Z" fill="#290CEB"/>
<path d="M16.1102 16.2994C14.5967 16.2994 13.3585 15.0376 13.364 13.5068C13.3704 12.9616 13.5381 12.4306 13.8459 11.9806C14.1537 11.5307 14.5878 11.1819 15.0936 10.9784C15.5993 10.7749 16.154 10.7256 16.6877 10.8369C17.2214 10.9482 17.7101 11.215 18.0924 11.6037C18.4746 11.9924 18.7332 12.4856 18.8355 13.0211C18.9378 13.5566 18.8793 14.1104 18.6672 14.6126C18.4552 15.1149 18.0992 15.5431 17.6442 15.8433C17.1891 16.1435 16.6553 16.3022 16.1102 16.2994Z" fill="#290CEB"/>
</g>
<defs>
<clipPath id="clip0_38_29">
<rect width="48" height="48" fill="white"/>
</clipPath>
</defs>
</svg>
