<svg id="Calque_1" data-name="Calque 1" xmlns="http://www.w3.org/2000/svg" viewBox="0 0 335.03 335.58"><path d="M256.54,335.58c1.71-.75,4.84-1.65,7.46-3.34a328.14,328.14,0,0,0,64-53.71c9.87-10.78,9.37-15.75-2.67-24.39-20.79-14.92-42.48-28.42-65.54-39.57-14.41-7-16.58-6.33-27.06,5.73-5.8,6.68-11.76,13.23-17.57,19.91-1.76,2-3.46,2.47-6.15,1.71-22.81-6.5-43-17.94-61-33.12-26.46-22.34-45.22-49.9-55.08-83.31-.67-2.25-.32-3.71,1.39-5.22q11-9.61,21.82-19.36c10.31-9.24,10.94-11.63,5-24.15-11.36-24-25.51-46.25-40.79-67.85a35,35,0,0,0-5.3-5.78C70.71-.75,67.37-1,62.58,2.23A55.77,55.77,0,0,0,55.8,7.51c-19.53,18-36.08,38.56-51.27,60.3C0,74.25-.81,80.69.53,88.25c4.57,25.07,14,48.3,26.37,70.36C50.44,200.51,81.33,236.33,118,267.3c26.6,22.5,55.34,41.65,87.72,54.95C221.6,328.76,237.9,333.63,256.54,335.58Zm78.33-180C334.6,63,256.09-2,179.53.46v23.4c36.27.83,67.46,13.39,93,39s37.86,56.82,38.68,92.74Zm-60.07,0c1-53.53-45.88-97-95.29-95.25V83.66c40.54,1,71.34,33,72,71.92Z" transform="translate(0.05 0)"/><path d="M256.54,335.58c-18.64-2-34.94-6.82-50.8-13.33C173.36,309,144.62,289.8,118,267.3c-36.62-31-67.51-66.79-91-108.69C14.57,136.55,5.17,113.32.6,88.25c-1.37-7.56-.52-14,4-20.44C19.79,46.07,36.34,25.53,55.87,7.51a55.77,55.77,0,0,1,6.78-5.28c4.79-3.21,8.13-3,12.47.9a35,35,0,0,1,5.3,5.78c15.28,21.6,29.43,43.9,40.79,67.85,6,12.52,5.32,14.91-5,24.15q-10.87,9.72-21.82,19.36A4.38,4.38,0,0,0,93,125.49c9.86,33.41,28.62,61,55.08,83.31,18,15.18,38.17,26.62,61,33.12,2.69.76,4.39.32,6.15-1.71C221,233.53,227,227,232.8,220.3c10.48-12.06,12.65-12.71,27.06-5.73,23.06,11.15,44.75,24.65,65.54,39.57,12,8.64,12.54,13.61,2.67,24.39a327.85,327.85,0,0,1-64,53.71C261.38,333.93,258.25,334.83,256.54,335.58Z" transform="translate(0.05 0)"/><path d="M334.87,155.56h-23.7c-.82-35.92-13.21-67.19-38.68-92.74s-56.69-38.15-93-39V.42C256.09-2,334.6,63,334.87,155.56Z" transform="translate(0.05 0)"/><path d="M274.8,155.55H251.47c-.62-39-31.42-70.91-72-71.92V60.3C228.92,58.53,275.82,102,274.8,155.55Z" transform="translate(0.05 0)"/></svg>