<svg id="Calque_1" data-name="Calque 1" xmlns="http://www.w3.org/2000/svg" viewBox="0 0 383.26 319.33"><path d="M497.15,407.14c-2.15,8.25-5.72,15.61-12.84,20.81A30.73,30.73,0,0,1,467,434.18c-1.5.06-3,.09-4.49.09q-157,0-314,.06c-10.58,0-19.62-3-26.7-11a30.34,30.34,0,0,1-7.86-20.5q-.06-104.22,0-208.46c0-17.17,13.64-30.74,30.81-31.36,2.83-.1,5.68,0,9,0,0-2.79-.05-5.12,0-7.45.24-10.2,6.52-16.44,16.74-16.55q11.22-.11,22.45,0c10.5.11,16.67,6.37,16.74,16.87,0,2.22,0,4.43,0,7.07,4.19,0,8,0,11.86,0,1.21,0,2.43-.1,4-.17v-4.29c0-9-.11-18,0-27,.16-9.87,6.71-16.44,16.54-16.46q63.24-.09,126.5,0c9.88,0,16.39,6.48,16.71,16.31a64.24,64.24,0,0,1-.08,7.85c-.42,4.69-3.73,7.66-8.13,7.58-4.2-.08-7.36-3-7.75-7.57-.22-2.59,0-5.21,0-8.05H241.72v13.54c0,8.35.07,16.71,0,25.07-.08,5.94-3.2,9-9.06,9q-15,.08-29.94,0c-5.79,0-8.74-3-8.86-8.76-.1-4.74-.09-9.48-.13-14.22a3.48,3.48,0,0,0-.24-.65h-23.6v12.62c0,8.42-2.58,11-10.86,11-4.24,0-8.48-.05-12.72,0-9.2.11-15.77,6.34-16.42,15.52-.06.87-.05,1.74-.05,2.62q0,101.61,0,203.22c0,9.59,4.57,16,12.75,17.77a22.88,22.88,0,0,0,4.83.37q158.13,0,316.25,0c10.91,0,17.58-6.52,17.58-17.4q0-102.36,0-204.72c0-10.89-6.65-17.4-17.57-17.4H269a33.44,33.44,0,0,1-4.48-.1,8,8,0,0,1-6.91-8,7.85,7.85,0,0,1,7.26-7.66c1.36-.12,2.74-.09,4.11-.09H462.14c18.89,0,29.66,8.3,34.57,26.56.06.22.29.38.44.58Z" transform="translate(-113.89 -115.01)"/><path d="M305.65,394.41a95.81,95.81,0,1,1,95.69-95.75A96,96,0,0,1,305.65,394.41Zm79.71-98.13c-1.91-44.46-38.67-79.22-82-77.52-44.53,1.75-79.45,38.68-77.7,82.16,1.79,44.33,38.78,79.31,82,77.52C352.3,376.59,387.22,339.66,385.36,296.28Z" transform="translate(-113.89 -115.01)"/><path d="M433.53,242.64c-5.24,0-10.48.07-15.71,0-9.83-.16-16.38-6.75-16.47-16.51-.05-5-.06-10,0-15,.11-9.16,6.4-16,15.57-16.3,10.84-.32,21.7-.3,32.55,0,9.23.25,15.47,6.93,15.65,16.18.1,5.36.13,10.72,0,16.08a15.51,15.51,0,0,1-15.48,15.5c-5.36.16-10.73,0-16.09,0Zm-16.11-16.17H449V211.15H417.42Z" transform="translate(-113.89 -115.01)"/><path d="M173.79,210.84c-6.1,0-12.21,0-18.31,0s-9.57-3.08-9.53-8.12c0-4.89,3.48-7.91,9.32-7.94q18.49-.07,37,0c5.79,0,9.28,3.07,9.33,7.92,0,5-3.46,8.09-9.5,8.14S179.9,210.84,173.79,210.84Z" transform="translate(-113.89 -115.01)"/><path d="M157.61,242.6c-1.37,0-2.75.08-4.12,0-4.47-.32-7.46-3.41-7.53-7.71a7.76,7.76,0,0,1,7.59-8.08,72.57,72.57,0,0,1,8.6,0,7.89,7.89,0,0,1-.05,15.78C160.61,242.69,159.1,242.6,157.61,242.6Z" transform="translate(-113.89 -115.01)"/><path d="M305.6,242.66c30.76.06,56,25.42,55.87,56.1s-25.56,56-56.2,55.79a55.95,55.95,0,0,1,.33-111.89Zm.1,95.77a39.83,39.83,0,1,0-40-39.75A39.71,39.71,0,0,0,305.7,338.43Z" transform="translate(-113.89 -115.01)"/></svg>