<svg id="Calque_1" data-name="Calque 1" xmlns="http://www.w3.org/2000/svg" viewBox="0 0 231.2 383.38"><path d="M234.31,471.28c-5.69-2.17-10.57-5.32-12.07-11.64-.71-3-.38-6.19-.84-9.25a5,5,0,0,0-2-3.38c-12-6.11-17.62-15.82-17.59-29.28q.15-82,0-163.94c0-12.36,0-24.71,0-37.06,0-19.5,12.23-31.68,31.8-31.77,8.09,0,16.18,0,24.68,0,.1-1.62.24-2.93.25-4.24,0-13.6.05-27.2-.05-40.8a22,22,0,0,0-1.25-5.3c-.23-.83-.91-1.63-.88-2.43.3-8.8-.44-17.84,1.36-26.34,2.25-10.62,12.74-17.77,23.67-17.83,24-.14,47.92-.18,71.88,0,13.75.11,24.64,11.07,25.29,25.09.26,5.6.07,11.22.06,16.84a4,4,0,0,1-.2,1.84c-4,7.39-2,15.37-2.21,23.09-.31,9.82-.08,19.66-.08,29.86,1.7.08,3,.19,4.35.2,8.36.07,16.73-.2,25.07.24A29.08,29.08,0,0,1,432.87,213c.08,1.62.09,3.24.09,4.86,0,66.13-.1,132.26.09,198.38,0,14.13-5.06,24.6-18,30.95-.88.43-1.49,2.06-1.63,3.21-.36,2.83,0,5.79-.59,8.54-1.46,6.62-6.29,10.15-12.32,12.35H387.07c-10.29-3.53-14.1-11.09-12.74-21.47H260.84c-.2,3.11,0,6-.61,8.78-1.42,6.78-6.27,10.44-12.44,12.69ZM421.73,317.43q0-50.16,0-100.31a29.58,29.58,0,0,0-.68-7.41c-2.29-8.7-9.28-13.5-19.53-13.51q-42.3,0-84.6,0c-27.95,0-55.91-.05-83.86,0-12.14,0-19.86,7.32-19.87,19q-.1,102,.1,204a22.38,22.38,0,0,0,3.14,10.87c3.69,6.19,9.85,8.28,17,8.28,55.65-.06,111.31-.21,167,.11,12.12.07,21.75-7.52,21.56-21.46C421.42,383.81,421.73,350.62,421.73,317.43ZM342.67,123.34H291.55c-.24,3.42.37,7-.91,9.72-1.79,3.75-1.71,7.41-1.72,11.22q0,18.15,0,36.3v4.12h57c0-1.37,0-2.48,0-3.59C345.41,162,347.81,142.66,342.67,123.34Zm24.78,4.09c0-5.06.24-9.68-.05-14.26a14.56,14.56,0,0,0-14.79-14q-35.19-.12-70.37,0c-7.55,0-13.62,5-14.51,12.48-.62,5.12-.12,10.37-.12,15.62h12.45c0-2.28-.05-4.27,0-6.26.17-5.74,3.45-9.13,9.1-9.15q28.26-.07,56.53,0c5.64,0,8.93,3.41,9.1,9.15.06,2.08,0,4.16,0,6.37ZM270.18,139v45.73h7.22V139Zm94.53,45.84V139.06h-7.27v45.73ZM249.22,449.85H232.88c-.57,9.09.39,10.2,8.55,10.2C248.72,460,249.79,458.69,249.22,449.85Zm152.88-.1H385.57c.14,3.44-1.58,7.85,2.24,9.18a19.84,19.84,0,0,0,11.84.07C403.6,457.74,401.85,453.28,402.1,449.75Z" transform="translate(-201.85 -87.9)"/><path d="M336.44,320.51q0,39.28,0,78.58c0,10.92-6.15,18.38-16.24,20.11s-20.12-5.7-21.49-15.7a31.39,31.39,0,0,1-.26-4.11q0-78.76,0-157.53c0-9.74,5-16.71,13.49-19.32C323.41,219,335.54,227,336.21,239c.5,9.08.21,18.2.22,27.31Q336.46,293.38,336.44,320.51Zm-11.24-.21v-76a39.3,39.3,0,0,0-.14-4.48,7.69,7.69,0,0,0-15.3.16,40.21,40.21,0,0,0-.11,4.11V396.78c0,1.37,0,2.75.1,4.11a7.81,7.81,0,0,0,7.57,7.33c4.13.07,7.42-3.06,7.8-7.49.11-1.36.08-2.74.08-4.11Z" transform="translate(-201.85 -87.9)"/><path d="M399.08,320.71c0,26.57.06,53.14,0,79.71,0,8-3.9,13.86-11.09,17.22s-13.9,2.24-20-2.62a18.12,18.12,0,0,1-7-14.71q-.09-55,0-110c0-4.06,2.23-6.64,5.51-6.73,3.44-.11,5.69,2.49,5.69,6.82q0,53.52,0,107a20.38,20.38,0,0,0,.49,5.18,7.64,7.64,0,0,0,7.86,5.63,7.93,7.93,0,0,0,7.22-6.95,16.44,16.44,0,0,0,.06-1.86q0-78.78,0-157.56c0-5-2.39-8.11-6.43-8.72-5.14-.78-9.07,2.65-9.18,8.27-.13,6.74,0,13.47-.05,20.21,0,4.47-2.05,6.87-5.62,6.83s-5.55-2.5-5.59-6.95c0-6.73-.09-13.47,0-20.21.17-11.32,8.46-19.63,19.32-19.51s18.73,8.39,18.76,19.61Q399.15,281,399.08,320.71Z" transform="translate(-201.85 -87.9)"/><path d="M273.88,320.52q0,39.3,0,78.59c0,10.61-6.17,18.21-16,20-10.89,2-21.64-6.4-22-17.51-.28-8.35-.13-16.71-.06-25.07,0-3.58,2.22-5.87,5.36-6s5.74,2.29,5.79,6c.12,7.48,0,15,.05,22.45,0,5.52,3.05,9.12,7.64,9.21,4.75.1,8-3.58,8-9.31q0-78.39,0-156.8c0-5.6-3-9-7.74-9.1-5-.06-7.89,3.33-7.9,9.23q0,52.2,0,104.41a18.63,18.63,0,0,1-.16,4.1c-.68,3-2.62,4.8-5.87,4.58-3.05-.2-4.7-2-5.14-5a16.68,16.68,0,0,1,0-2.24c0-35.68-.06-71.35,0-107,0-13.89,13.37-23.06,26-18.06,7.55,3,12.08,10,12.09,18.92Q273.93,281.23,273.88,320.52Z" transform="translate(-201.85 -87.9)"/></svg>