<svg width="126" height="174" viewBox="0 0 126 174" fill="none" xmlns="http://www.w3.org/2000/svg">
<path d="M38.9419 19.9052C56.0121 56.1885 66.5852 68.987 88.4462 66.9166C95.2085 66.2762 103.105 64.206 112.808 61.0104C93.8076 74.7206 84.6938 84.144 81.1679 97.6116C77.7844 110.539 79.8673 125.961 86.9496 153.327C69.8794 117.044 59.3038 104.206 37.4845 106.272C30.7222 106.913 22.8168 108.974 13.1147 112.179C32.1249 98.4981 41.2132 89.0672 44.7562 75.6078C48.1398 62.6806 46.0569 47.2586 38.9746 19.8922L38.9419 19.9052ZM31.8722 0.00425317C53.2182 76.2978 51.132 84.2304 0.720387 118.563C16.303 112.931 28.0554 109.154 37.6076 108.249C61.7588 105.962 71.4252 122.227 94.1341 173.188C72.7803 96.9047 74.8665 88.9721 125.286 54.6288C109.588 60.2912 97.8349 64.0589 88.3243 64.9596C64.1731 67.2468 54.5067 50.9821 31.7972 0.0113518L31.8722 0.00425317Z" fill="#290CEB"/>
</svg>
