<svg width="69" height="95" viewBox="0 0 69 95" fill="none" xmlns="http://www.w3.org/2000/svg">
<path d="M21.4465 10.9853C30.7323 30.7227 36.4838 37.6848 48.3757 36.5586C52.0543 36.2102 56.3497 35.0841 61.6278 33.3457C51.2922 40.8037 46.3345 45.9299 44.4165 53.256C42.576 60.2881 43.709 68.6774 47.5616 83.5641C38.2758 63.8268 32.523 56.8432 20.6537 57.9673C16.9752 58.3156 12.6748 59.4368 7.3971 61.1806C17.7382 53.7382 22.682 48.608 24.6094 41.2864C26.45 34.2543 25.3169 25.865 21.4643 10.9782L21.4465 10.9853ZM17.6007 0.159633C29.2125 41.6617 28.0777 45.9769 0.654865 64.6531C9.13144 61.5896 15.5245 59.5347 20.7207 59.0426C33.8584 57.7984 39.1167 66.6461 51.4698 94.3677C39.8539 52.8714 40.9887 48.5562 68.4157 29.8742C59.8764 32.9545 53.483 35.004 48.3094 35.494C35.1717 36.7382 29.9134 27.8905 17.56 0.163494L17.6007 0.159633Z" fill="#290CEB"/>
</svg>
